<svg width="32" height="32" xmlns="http://www.w3.org/2000/svg">

 <g>
  <title>background</title>
  <rect fill="none" id="canvas_background" height="402" width="582" y="-1" x="-1"/>
 </g>
 <g>
  <title>Layer 1</title>
  <path fill="#c10909" id="XMLID_259_" d="m2.156,14.901l2.489,-8.725c0.367,-1.281 1.552,-2.176 2.883,-2.176l13.473,0c0.553001,0 0.999001,0.448 0.999001,1l0,14c0,0.215 -0.068001,0.424999 -0.197001,0.597l-5.392,7.24c-0.598,0.749001 -1.459999,1.163 -2.383999,1.163c-1.669001,0 -3.026,-1.357 -3.026,-3.025999l0,-4.974001l-5.002,0c-1.265,0 -2.427,-0.579 -3.188,-1.589001c-0.764,-1.011999 -1.002,-2.290998 -0.655,-3.509999z"/>
  <path fill="#c10909" id="XMLID_260_" d="m25.000999,20l4,0c0.553001,0 0.999001,-0.448 0.999001,-1l0,-14c0,-0.552 -0.445999,-1 -0.999001,-1l-4,0c-0.552999,0 -1,0.448 -1,1l0,14c0,0.552 0.447001,1 1,1zm2,-13.5c0.828001,0 1.5,0.672 1.5,1.5c0,0.828 -0.671999,1.5 -1.5,1.5c-0.827999,0 -1.5,-0.672 -1.5,-1.5c0,-0.828 0.672001,-1.5 1.5,-1.5z"/>
 </g>
</svg>