<svg width="32" height="32" xmlns="http://www.w3.org/2000/svg">

 <g>
  <title>background</title>
  <rect fill="none" id="canvas_background" height="402" width="582" y="-1" x="-1"/>
 </g>
 <g>
  <title>Layer 1</title>
  <path fill="#008cff" id="XMLID_254_" d="m29.844999,17.099001l-2.488998,8.724998c-0.367001,1.281 -1.552,2.176001 -2.883001,2.176001l-13.473,0c-0.553,0 -1,-0.448 -1,-1l0,-14c0,-0.215 0.069,-0.425 0.198,-0.597l5.392,-7.24c0.598,-0.749 1.459999,-1.163 2.384001,-1.163c1.668999,0 3.025999,1.357 3.025999,3.026l0,4.974l5.002001,0c1.264999,0 2.427,0.579 3.188,1.589c0.764,1.012 1.001999,2.291 0.654999,3.510001z"/>
  <path fill="#008cff" id="XMLID_256_" d="m7,12l-4,0c-0.553,0 -1,0.448 -1,1l0,14c0,0.552 0.447,1 1,1l4,0c0.553,0 1,-0.448 1,-1l0,-14c0,-0.552 -0.447,-1 -1,-1zm-2,13.5c-0.828,0 -1.5,-0.672001 -1.5,-1.5c0,-0.827999 0.672,-1.5 1.5,-1.5c0.828,0 1.5,0.672001 1.5,1.5c0,0.827999 -0.672,1.5 -1.5,1.5z"/>
 </g>
</svg>